<svg width="99" height="13" viewBox="0 0 99 13" fill="none" xmlns="http://www.w3.org/2000/svg">
<path d="M5.2331 12.4957H0.123369V0.823502H4.66535C5.45574 0.823502 6.13482 0.918127 6.70256 1.10738C7.28144 1.29663 7.7156 1.55267 8.00504 1.87551C8.52826 2.47665 8.78987 3.15572 8.78987 3.91272C8.78987 4.82557 8.49487 5.50464 7.90485 5.94993C7.70447 6.10578 7.56532 6.20597 7.48739 6.2505C7.40947 6.2839 7.27031 6.34513 7.06993 6.43419C7.79353 6.59004 8.36684 6.91844 8.78987 7.41939C9.22403 7.90922 9.44111 8.52149 9.44111 9.25623C9.44111 10.0689 9.1628 10.7869 8.60619 11.4103C7.96051 12.1339 6.83615 12.4957 5.2331 12.4957ZM2.72833 5.54917H3.96402C4.68762 5.54917 5.22197 5.47124 5.56707 5.31539C5.9233 5.15954 6.10142 4.82557 6.10142 4.31348C6.10142 3.79026 5.94 3.44516 5.61716 3.27818C5.29433 3.11119 4.74884 3.0277 3.98071 3.0277H2.72833V5.54917ZM2.72833 10.2915H4.51506C5.26093 10.2915 5.81754 10.2025 6.18491 10.0244C6.56341 9.83511 6.75266 9.47331 6.75266 8.93895C6.75266 8.39347 6.55228 8.03724 6.15151 7.87025C5.76188 7.69214 5.13291 7.60308 4.26459 7.60308H2.72833V10.2915ZM16.1809 5.71615C15.4351 5.71615 14.8785 5.98333 14.5111 6.51768C14.1437 7.0409 13.96 7.73667 13.96 8.60499V12.4957H11.4553V3.51195H13.96V4.69755C14.2829 4.33018 14.6836 4.01848 15.1623 3.76243C15.6522 3.50639 16.1475 3.3728 16.6485 3.36167L16.6652 5.71615H16.1809ZM25.9398 12.4957H23.5853V11.4103C22.9396 12.223 22.1381 12.6293 21.1807 12.6293C20.2345 12.6293 19.4385 12.3566 18.7929 11.8111C18.1472 11.2545 17.8243 10.5197 17.8243 9.60689C17.8243 8.68291 18.1583 7.99271 18.8263 7.53628C19.4942 7.07986 20.407 6.85165 21.5648 6.85165H23.435V6.80155C23.435 5.84417 22.9285 5.36548 21.9155 5.36548C21.4813 5.36548 21.0193 5.45454 20.5295 5.63266C20.0508 5.79964 19.6445 6.01116 19.3105 6.2672L18.1917 4.64745C19.3717 3.79026 20.7187 3.36167 22.2327 3.36167C23.3237 3.36167 24.2143 3.63441 24.9045 4.17989C25.5947 4.72538 25.9398 5.58813 25.9398 6.76815V12.4957ZM23.4183 9.07254V8.63838H21.8487C20.8468 8.63838 20.3458 8.95009 20.3458 9.5735C20.3458 9.89633 20.4627 10.1468 20.6965 10.3249C20.9414 10.4919 21.2865 10.5754 21.7318 10.5754C22.1771 10.5754 22.5667 10.4418 22.9007 10.1746C23.2458 9.89633 23.4183 9.52897 23.4183 9.07254ZM30.7977 7.48619V12.4957H28.2929V3.51195H30.7977V4.51386C31.5547 3.74573 32.4063 3.36167 33.3525 3.36167C34.2988 3.36167 35.0892 3.69564 35.7237 4.36358C36.3694 5.03151 36.6922 5.9221 36.6922 7.03533V12.4957H34.1874V7.41939C34.1874 6.03899 33.6809 5.34879 32.6679 5.34879C32.1669 5.34879 31.7272 5.53247 31.3487 5.89984C30.9813 6.25607 30.7977 6.78485 30.7977 7.48619ZM42.6175 12.6293C41.5599 12.6293 40.6137 12.1785 39.7787 11.2767C38.9438 10.375 38.5264 9.25623 38.5264 7.92035C38.5264 6.58447 38.9327 5.49351 39.7453 4.64745C40.558 3.79026 41.5098 3.36167 42.6008 3.36167C43.6917 3.36167 44.5823 3.74573 45.2725 4.51386V0.105468H47.7773V12.4957H45.2725V11.3101C44.5712 12.1896 43.6862 12.6293 42.6175 12.6293ZM41.0478 8.02054C41.0478 8.74414 41.2649 9.33972 41.6991 9.80728C42.1332 10.2637 42.6397 10.4919 43.2186 10.4919C43.7975 10.4919 44.2873 10.2637 44.6881 9.80728C45.1 9.33972 45.3059 8.74414 45.3059 8.02054C45.3059 7.28581 45.1 6.6791 44.6881 6.20041C44.2873 5.71059 43.7919 5.46567 43.2019 5.46567C42.6119 5.46567 42.1054 5.71059 41.6824 6.20041C41.2593 6.69023 41.0478 7.29694 41.0478 8.02054ZM58.6343 0.823502H61.2393V12.4957H58.6343L53.0738 5.1818V12.4957H50.4688V0.823502H52.9068L58.6343 8.33781V0.823502ZM71.5681 12.4957H69.2136V11.4103C68.568 12.223 67.7664 12.6293 66.8091 12.6293C65.8628 12.6293 65.0669 12.3566 64.4212 11.8111C63.7755 11.2545 63.4527 10.5197 63.4527 9.60689C63.4527 8.68291 63.7866 7.99271 64.4546 7.53628C65.1225 7.07986 66.0354 6.85165 67.1931 6.85165H69.0634V6.80155C69.0634 5.84417 68.5568 5.36548 67.5438 5.36548C67.1096 5.36548 66.6477 5.45454 66.1578 5.63266C65.6791 5.79964 65.2728 6.01116 64.9388 6.2672L63.82 4.64745C65.0001 3.79026 66.3471 3.36167 67.8611 3.36167C68.952 3.36167 69.8426 3.63441 70.5328 4.17989C71.223 4.72538 71.5681 5.58813 71.5681 6.76815V12.4957ZM69.0467 9.07254V8.63838H67.477C66.4751 8.63838 65.9741 8.95009 65.9741 9.5735C65.9741 9.89633 66.091 10.1468 66.3248 10.3249C66.5697 10.4919 66.9148 10.5754 67.3601 10.5754C67.8054 10.5754 68.195 10.4418 68.529 10.1746C68.8741 9.89633 69.0467 9.52897 69.0467 9.07254ZM82.1703 7.65317V12.4957H79.6488V7.58638C79.6488 6.87391 79.5375 6.35069 79.3148 6.01672C79.1033 5.68276 78.7526 5.51577 78.2628 5.51577C77.7841 5.51577 77.3555 5.69945 76.977 6.06682C76.6097 6.42305 76.426 6.95184 76.426 7.65317V12.4957H73.9212V3.51195H76.426V4.53056C77.1162 3.7513 77.9066 3.36167 78.7972 3.36167C79.3649 3.36167 79.877 3.52865 80.3334 3.86262C80.801 4.19659 81.1517 4.60292 81.3854 5.08161C81.7305 4.53613 82.1925 4.1131 82.7714 3.81253C83.3614 3.51195 83.9514 3.36167 84.5414 3.36167C85.599 3.36167 86.4506 3.67894 87.0963 4.31348C87.742 4.93689 88.0648 5.84417 88.0648 7.03533V12.4957H85.5434V7.58638C85.5434 6.20597 85.0368 5.51577 84.0238 5.51577C83.5228 5.51577 83.0887 5.69945 82.7213 6.06682C82.3539 6.42305 82.1703 6.95184 82.1703 7.65317ZM98.1935 11.1932C97.1805 12.1506 95.9893 12.6293 94.6201 12.6293C93.2619 12.6293 92.1375 12.2119 91.247 11.3769C90.3564 10.5309 89.9111 9.40095 89.9111 7.98714C89.9111 6.57334 90.3619 5.44898 91.2637 4.61405C92.1765 3.77913 93.2508 3.36167 94.4865 3.36167C95.7222 3.36167 96.7686 3.7346 97.6258 4.48047C98.4941 5.22633 98.9283 6.2505 98.9283 7.55298V8.88886H92.3825C92.4604 9.37868 92.7164 9.77944 93.1506 10.0911C93.5847 10.4029 94.0746 10.5587 94.6201 10.5587C95.4995 10.5587 96.2231 10.2637 96.7909 9.67369L98.1935 11.1932ZM96.3901 7.10212C96.3344 6.56777 96.134 6.15588 95.7889 5.86644C95.4438 5.577 95.0208 5.43228 94.5199 5.43228C94.03 5.43228 93.5792 5.58256 93.1673 5.88314C92.7554 6.18371 92.516 6.59004 92.4493 7.10212H96.3901Z" fill="white"/>
</svg>
