<svg width="41" height="37" viewBox="0 0 41 37" fill="none" xmlns="http://www.w3.org/2000/svg">
<path d="M2.41308 27.7268C2.52417 27.5492 2.69716 27.5365 2.93936 27.6905C8.46624 30.8803 14.4812 32.4843 20.9786 32.4843C25.3146 32.4843 29.5922 31.6741 33.8188 30.0702L34.296 29.8581C34.5054 29.7657 34.6511 29.7059 34.7403 29.6606C35.0845 29.5265 35.334 29.5935 35.5379 29.8581C35.7237 30.1173 35.6763 30.3638 35.3558 30.5831C34.9679 30.8694 34.4453 31.2029 33.8261 31.5708C31.9377 32.6927 29.8144 33.5608 27.467 34.1825C25.2278 34.7817 22.9204 35.0912 20.6017 35.1032C17.1617 35.1032 13.9002 34.5051 10.8245 33.3089C7.79014 32.1268 4.99498 30.4096 2.57333 28.2397C2.42037 28.1291 2.3457 28.0168 2.3457 27.9062C2.3457 27.8355 2.37484 27.7721 2.42037 27.7087L2.41308 27.7268ZM12.3906 18.3224C12.3906 16.8 12.7676 15.5041 13.5178 14.4221C14.2717 13.3492 15.297 12.5355 16.6191 11.9827C17.8319 11.4734 19.2869 11.1128 21.0442 10.8916C21.6379 10.8246 22.6121 10.7358 23.9579 10.6288V10.067C23.9579 8.66605 23.8049 7.71274 23.5063 7.23246C23.0474 6.58182 22.3226 6.25196 21.3155 6.25196H21.0424C20.314 6.32265 19.6839 6.54557 19.1503 6.9461C18.6148 7.35524 18.2492 7.94614 18.1232 8.60624C18.034 9.05933 17.81 9.30763 17.4658 9.37831L13.6325 8.89984C13.2519 8.80741 13.0662 8.62799 13.0662 8.30901C13.0662 8.24195 13.0771 8.17489 13.099 8.08609C13.4796 6.13235 14.401 4.67701 15.867 3.72914C17.3493 2.79758 19.0574 2.25387 21.0169 2.14331H21.8382C24.3494 2.14331 26.3343 2.79758 27.7457 4.09343C27.9551 4.31635 28.159 4.54652 28.3648 4.81475C28.5469 5.06667 28.7072 5.29322 28.7909 5.49802C28.9057 5.69919 29.0222 5.99642 29.0896 6.35889C29.1825 6.74493 29.2498 6.99685 29.2954 7.13096C29.3372 7.28683 29.3882 7.58406 29.4119 8.06253C29.4228 8.53737 29.441 8.8056 29.441 8.89803V16.8834C29.441 17.4524 29.5303 17.9744 29.6905 18.4511C29.8508 18.9223 30.0074 19.2684 30.1676 19.4714L30.9471 20.4882C31.0637 20.6493 31.1336 20.8393 31.1492 21.0373C31.1492 21.2222 31.06 21.378 30.8797 21.5085C29.055 23.098 28.0516 23.9589 27.895 24.0966C27.6455 24.3014 27.325 24.3232 26.9389 24.1673C26.6586 23.9322 26.3917 23.6817 26.1395 23.417L25.6697 22.8896C25.5768 22.7754 25.4129 22.5742 25.1853 22.2516L24.73 21.5937C23.499 22.9349 22.2934 23.7776 21.0843 24.1184C20.3304 24.3449 19.4198 24.4591 18.2999 24.4591C16.6136 24.4591 15.2023 23.9426 14.106 22.895C13.017 21.8511 12.4671 20.3776 12.4671 18.4492L12.3888 18.3351L12.3906 18.3224ZM18.0923 17.6572C18.0923 18.5181 18.3054 19.2014 18.7388 19.7215C19.1685 20.2381 19.764 20.4972 20.4961 20.4972C20.5598 20.4972 20.6563 20.4827 20.7874 20.4646C20.9295 20.4429 20.9896 20.4284 21.0442 20.4284C21.9766 20.1873 22.6868 19.5929 23.2094 18.6486C23.4618 18.2217 23.6455 17.7582 23.7539 17.2748C23.8923 16.7891 23.936 16.3795 23.9561 16.0678C23.9852 15.7669 23.9852 15.2468 23.9852 14.5454V13.728C22.705 13.728 21.7271 13.8168 21.0642 13.9962C19.1285 14.5454 18.1433 15.7669 18.1433 17.6735L18.0905 17.6445V17.6572H18.0923ZM32.016 28.2868C32.0615 28.1944 32.1307 28.1201 32.2145 28.0276C32.7626 27.6634 33.2998 27.4078 33.8116 27.2737C34.6126 27.0687 35.4328 26.9467 36.259 26.9094C36.4721 26.8913 36.6852 26.9094 36.8891 26.9547C37.8707 27.0471 38.4789 27.2103 38.6683 27.4495C38.7648 27.5909 38.803 27.7957 38.803 28.044V28.2705C38.803 29.0426 38.59 29.9488 38.1693 30.9927C37.7487 32.0366 37.1623 32.8794 36.4157 33.5336C36.3046 33.6224 36.2062 33.6678 36.117 33.6678C36.0715 33.6678 36.0241 33.6678 35.9822 33.6496C35.8438 33.5826 35.8184 33.4684 35.8821 33.2853C36.7034 31.3805 37.1058 30.0466 37.1058 29.2963C37.1058 29.0661 37.0603 28.8849 36.9711 28.7725C36.7544 28.5242 36.1389 28.3792 35.1136 28.3792C34.6716 28.3858 34.2299 28.4094 33.7897 28.4499C33.2379 28.5242 32.7299 28.5913 32.271 28.6584C32.1362 28.6584 32.047 28.633 31.9978 28.5913C31.9523 28.546 31.9413 28.5206 31.965 28.4753C31.965 28.4499 31.9759 28.43 31.9978 28.3792V28.2904L32.016 28.2868Z" fill="#252B42"/>
</svg>
